REM DIRINDEX 1\2\6,1\2\7,1\2\8,1\2\9,1\3\10,1\3\11,1\4\12,1\4\13,1\4\14,1\5\15,1\5\16,1\5\17
REM DIRNAME cjc020,folder01,folder02,folder03,folder04,folder05,folder06,folder07,folder08,folder09,folder10,folder11,folder12,folder13,folder14,folder15,folder16
TITLE ""
FILE "1900_2_sec16_1538_1557.mp3" MP3
  TRACK 01 AUDIO
    TITLE "0:"
    INDEX 01 00:00:00
  TRACK 02 AUDIO
    TITLE "13:cjc020_5226"
    INDEX 01 00:00:17
  TRACK 03 AUDIO
    TITLE "0:"
    INDEX 01 00:01:15
  TRACK 04 AUDIO
    TITLE "14:cjc020_5227"
    INDEX 01 00:01:21
  TRACK 05 AUDIO
    TITLE "0:"
    INDEX 01 00:03:02
  TRACK 06 AUDIO
    TITLE "13:cjc020_5228"
    INDEX 01 00:03:59
  TRACK 07 AUDIO
    TITLE "0:"
    INDEX 01 00:05:20
  TRACK 08 AUDIO
    TITLE "14:cjc020_5229"
    INDEX 01 00:05:26
  TRACK 09 AUDIO
    TITLE "0:"
    INDEX 01 00:07:60
  TRACK 10 AUDIO
    TITLE "13:cjc020_5230"
    INDEX 01 00:08:40
  TRACK 11 AUDIO
    TITLE "0:"
    INDEX 01 00:09:42
  TRACK 12 AUDIO
    TITLE "14:cjc020_5231"
    INDEX 01 00:09:45
  TRACK 13 AUDIO
    TITLE "0:"
    INDEX 01 00:10:49
  TRACK 14 AUDIO
    TITLE "13:cjc020_5232"
    INDEX 01 00:11:27
  TRACK 15 AUDIO
    TITLE "0:"
    INDEX 01 00:12:40
  TRACK 16 AUDIO
    TITLE "14:cjc020_5233"
    INDEX 01 00:12:42
  TRACK 17 AUDIO
    TITLE "0:"
    INDEX 01 00:14:31
  TRACK 18 AUDIO
    TITLE "13:cjc020_5234"
    INDEX 01 00:15:11
  TRACK 19 AUDIO
    TITLE "0:"
    INDEX 01 00:16:36
  TRACK 20 AUDIO
    TITLE "14:cjc020_5235"
    INDEX 01 00:16:40
  TRACK 21 AUDIO
    TITLE "0:"
    INDEX 01 00:18:70
  TRACK 22 AUDIO
    TITLE "13:cjc020_5236"
    INDEX 01 00:19:50
  TRACK 23 AUDIO
    TITLE "0:"
    INDEX 01 00:20:37
  TRACK 24 AUDIO
    TITLE "14:cjc020_5237"
    INDEX 01 00:20:57
  TRACK 25 AUDIO
    TITLE "0:"
    INDEX 01 00:22:21
  TRACK 26 AUDIO
    TITLE "13:cjc020_5238"
    INDEX 01 00:23:03
  TRACK 27 AUDIO
    TITLE "0:"
    INDEX 01 00:24:06
  TRACK 28 AUDIO
    TITLE "14:cjc020_5239"
    INDEX 01 00:24:12
  TRACK 29 AUDIO
    TITLE "0:"
    INDEX 01 00:26:11
  TRACK 30 AUDIO
    TITLE "13:cjc020_5240"
    INDEX 01 00:26:67
  TRACK 31 AUDIO
    TITLE "0:"
    INDEX 01 00:28:06
  TRACK 32 AUDIO
    TITLE "14:cjc020_5241"
    INDEX 01 00:28:10
  TRACK 33 AUDIO
    TITLE "0:"
    INDEX 01 00:31:47
  TRACK 34 AUDIO
    TITLE "13:cjc020_5242"
    INDEX 01 00:32:29
  TRACK 35 AUDIO
    TITLE "0:"
    INDEX 01 00:33:42
  TRACK 36 AUDIO
    TITLE "14:cjc020_5243"
    INDEX 01 00:33:44
  TRACK 37 AUDIO
    TITLE "0:"
    INDEX 01 00:35:45
  TRACK 38 AUDIO
    TITLE "13:cjc020_5244"
    INDEX 01 00:36:23
  TRACK 39 AUDIO
    TITLE "0:"
    INDEX 01 00:37:28
  TRACK 40 AUDIO
    TITLE "14:cjc020_5245"
    INDEX 01 00:37:32
  TRACK 41 AUDIO
    TITLE "0:"
    INDEX 01 00:38:57
  TRACK 42 AUDIO
    TITLE "13:cjc020_5246"
    INDEX 01 00:39:35
  TRACK 43 AUDIO
    TITLE "0:"
    INDEX 01 00:40:64
  TRACK 44 AUDIO
    TITLE "14:cjc020_5247"
    INDEX 01 00:40:73
  TRACK 45 AUDIO
    TITLE "0:"
    INDEX 01 00:43:31
  TRACK 46 AUDIO
    TITLE "13:cjc020_5248"
    INDEX 01 00:44:14
  TRACK 47 AUDIO
    TITLE "0:"
    INDEX 01 00:45:59
  TRACK 48 AUDIO
    TITLE "14:cjc020_5249"
    INDEX 01 00:45:63
  TRACK 49 AUDIO
    TITLE "0:"
    INDEX 01 00:47:17
  TRACK 50 AUDIO
    TITLE "13:cjc020_5250"
    INDEX 01 00:48:00
  TRACK 51 AUDIO
    TITLE "0:"
    INDEX 01 00:49:21
  TRACK 52 AUDIO
    TITLE "14:cjc020_5251"
    INDEX 01 00:49:25
  TRACK 53 AUDIO
    TITLE "0:"
    INDEX 01 00:52:41
  TRACK 54 AUDIO
    TITLE "13:cjc020_5252"
    INDEX 01 00:53:19
  TRACK 55 AUDIO
    TITLE "0:"
    INDEX 01 00:54:50
  TRACK 56 AUDIO
    TITLE "14:cjc020_5253"
    INDEX 01 00:54:52
  TRACK 57 AUDIO
    TITLE "0:"
    INDEX 01 00:56:12
  TRACK 58 AUDIO
    TITLE "13:cjc020_5254"
    INDEX 01 00:56:69
  TRACK 59 AUDIO
    TITLE "0:"
    INDEX 01 00:58:22
  TRACK 60 AUDIO
    TITLE "14:cjc020_5255"
    INDEX 01 00:58:26
  TRACK 61 AUDIO
    TITLE "0:"
    INDEX 01 00:59:57
  TRACK 62 AUDIO
    TITLE "13:cjc020_5256"
    INDEX 01 01:00:37
  TRACK 63 AUDIO
    TITLE "0:"
    INDEX 01 01:01:40
  TRACK 64 AUDIO
    TITLE "14:cjc020_5257"
    INDEX 01 01:01:42
  TRACK 65 AUDIO
    TITLE "0:"
    INDEX 01 01:02:50
  TRACK 66 AUDIO
    TITLE "13:cjc020_5258"
    INDEX 01 01:03:31
  TRACK 67 AUDIO
    TITLE "0:"
    INDEX 01 01:04:47
  TRACK 68 AUDIO
    TITLE "14:cjc020_5259"
    INDEX 01 01:04:50
  TRACK 69 AUDIO
    TITLE "0:"
    INDEX 01 01:07:37
  TRACK 70 AUDIO
    TITLE "13:cjc020_5260"
    INDEX 01 01:08:21
  TRACK 71 AUDIO
    TITLE "0:"
    INDEX 01 01:09:30
  TRACK 72 AUDIO
    TITLE "14:cjc020_5261"
    INDEX 01 01:09:32
  TRACK 73 AUDIO
    TITLE "0:"
    INDEX 01 01:11:37
  TRACK 74 AUDIO
    TITLE "13:cjc020_5262"
    INDEX 01 01:12:15
  TRACK 75 AUDIO
    TITLE "0:"
    INDEX 01 01:13:18
  TRACK 76 AUDIO
    TITLE "14:cjc020_5263"
    INDEX 01 01:13:20
  TRACK 77 AUDIO
    TITLE "0:"
    INDEX 01 01:15:70
  TRACK 78 AUDIO
    TITLE "13:cjc020_5264"
    INDEX 01 01:16:52
  TRACK 79 AUDIO
    TITLE "0:"
    INDEX 01 01:17:59
  TRACK 80 AUDIO
    TITLE "14:cjc020_5265"
    INDEX 01 01:17:63
  TRACK 81 AUDIO
    TITLE "0:"
    INDEX 01 01:21:14
